# xmcd
#
# Track frame offsets:
#	150
#	27538
#	50913
#	78590
#	104815
#	129751
#	150009
#	171242
#	193997
#	214876
#	247035
#	271750
#
# Disc length: 3955 seconds
#
# Revision: 1
# Processed by: cddbd v1.5.1PL0 Copyright (c) Steve Scherf et al.
# Submitted via: audiograbber 1.80
#
DISCID=ac0f710c
DTITLE=C.I.N. - Richmond Rolette
DYEAR=1900
DGENRE=
TTITLE0=Jocin My Team
TTITLE1=Blind Side
TTITLE2=Inside a Morgue
TTITLE3=So Much Dirt
TTITLE4=PH Balance
TTITLE5=Chemical Green
TTITLE6=Session 2
TTITLE7=Shitty Shoes
TTITLE8=Paranoia
TTITLE9=City Streets
TTITLE10=Goin Bad
TTITLE11=Richmond Rolette
EXTD=
EXTT0=
EXTT1=
EXTT2=
EXTT3=
EXTT4=
EXTT5=
EXTT6=
EXTT7=
EXTT8=
EXTT9=
EXTT10=
EXTT11=
PLAYORDER=
